# xmcd
#
# Track frame offsets:
# 150
# 14387
# 29257
# 45499
# 63022
# 84297
# 100113
# 117479
# 133957
# 149950
# 173362
# 194375
# 213431
# 249330
#
# Disc length: 3580 seconds
#
# Revision: 1
# Processed by: cddbd v1.5.2PL0 Copyright (c) Steve Scherf et al.
# Submitted via: CedeCatalogueitor 2.6.0.6 http://personales.ya.com/cdcatalogueitor
#
DISCID=be0dfa0e
DTITLE=Curtis Mayfield - Superfly - The Legendary Funkstar
DYEAR=1900
DGENRE=
TTITLE0=Superfly (single Version)
TTITLE1=Freddie's Dead
TTITLE2=You're So Good To Me (single Version)
TTITLE3=Tripping Out
TTITLE4=Between You Baby And Me (full Lenght Version)
TTITLE5=Only You Babe
TTITLE6=Love's Sweet Sensation
TTITLE7=Do It All Night
TTITLE8=Baby It's You
TTITLE9=So In Love
TTITLE10=Hey Baby (give It All To Me)
TTITLE11=She Don't Let Nobody But Me
TTITLE12=Love Me, Love Me Now (long Version)
TTITLE13=Give Me Your Love
EXTD=
EXTT0=
EXTT1=
EXTT2=
EXTT3=
EXTT4=
EXTT5=
EXTT6=
EXTT7=
EXTT8=
EXTT9=
EXTT10=
EXTT11=
EXTT12=
EXTT13=
PLAYORDER=
